<svg xmlns="http://www.w3.org/2000/svg" fill="none" viewBox="0 0 14 14" height="24" width="24"><path fill="#67befa" fill-rule="evenodd" d="M7 2.25C6.53587 2.25 6.09075 2.43437 5.76256 2.76256C5.5552 2.96993 5.40525 3.22397 5.32295 3.5H8.67705C8.59475 3.22397 8.4448 2.96993 8.23744 2.76256C7.90925 2.43437 7.46413 2.25 7 2.25ZM4.7019 1.7019C4.21153 2.19227 3.89405 2.82321 3.78868 3.5H2.5C1.11929 3.5 0 4.61929 0 6V11.5C0 12.8807 1.11929 14 2.5 14H11.5C12.8807 14 14 12.8807 14 11.5V6C14 4.61929 12.8807 3.5 11.5 3.5H10.2113C10.106 2.82321 9.78847 2.19227 9.2981 1.7019C8.6886 1.09241 7.86195 0.75 7 0.75C6.13805 0.75 5.3114 1.09241 4.7019 1.7019Z" clip-rule="evenodd"></path><path fill="#000000" fill-rule="evenodd" d="M10.2079 3.47876C10.2055 3.50129 10.2042 3.52417 10.2042 3.54735V13.9526C10.2042 13.9686 10.2048 13.9844 10.206 14H11.4525C11.4536 13.9844 11.4542 13.9686 11.4542 13.9526V3.54735C11.4542 3.53142 11.4536 3.51562 11.4525 3.49999H10.2113C10.2102 3.49291 10.2091 3.48583 10.2079 3.47876ZM3.79401 14C3.79518 13.9844 3.79578 13.9686 3.79578 13.9526V3.54735C3.79578 3.52417 3.79451 3.50129 3.79206 3.47876C3.79091 3.48583 3.78978 3.49291 3.78868 3.49999H2.54754C2.54637 3.51562 2.54578 3.53142 2.54578 3.54735V13.9526C2.54578 13.9686 2.54637 13.9844 2.54754 14H3.79401Z" clip-rule="evenodd"></path></svg>